<?xml version="1.0" encoding="utf-8"?>
<!-- Svg Vector Icons : http://www.sfont.cn -->
<!DOCTYPE svg PUBLIC "-//W3C//DTD SVG 1.1//EN" "http://www.w3.org/Graphics/SVG/1.1/DTD/svg11.dtd">
<svg version="1.1" xmlns="http://www.w3.org/2000/svg" fill='yellowgreen' xmlns:xlink="http://www.w3.org/1999/xlink" x="0px" y="0px" viewBox="0 0 1000 1000" enable-background="new 0 0 1000 1000" xml:space="preserve" width="122px" height="94px">
<metadata> Svg Vector Icons : http://www.sfont.cn </metadata>
<g><g transform="translate(0.000000,511.000000) scale(0.100000,-0.100000)"><path d="M4575.6,4991c-1377.5-122.6-2658.9-835.9-3480.5-1939.5c-220.7-296.3-310.6-443.5-468-754.1c-114.5-226.9-265.7-588.6-265.7-631.5c0-10.2,179.8-192.1,400.6-402.6L1162.5,881l65.4,161.5c241.2,598.8,721.5,1011.7,1357.1,1164.9c183.9,42.9,600.9,42.9,784.8,0c376-92,682.6-263.7,946.3-533.4c251.4-259.6,427.1-588.6,498.7-932c24.5-114.4,24.5-114.4,92-106.3c67.4,8.2,69.5,10.2,110.4,175.8c128.8,529.3,504.8,997.4,995.3,1244.6c159.4,79.7,421,153.3,625.4,179.9c380.2,44.9,819.6-53.1,1167-259.6c327-196.2,639.7-568.2,774.6-917.7c34.7-89.9,65.4-165.5,69.5-169.6c2-2,200.3,239.1,439.4,537.5l433.3,543.7l-65.4,157.4c-343.3,819.6-1068.9,1645.2-1900.7,2160.3C6680.7,4827.5,5605.7,5082.9,4575.6,4991z M5577.1,4531.1c1165-149.2,2248.1-776.6,2959.4-1714.7c165.5-218.7,294.3-419,269.8-419c-10.2,0-132.8,22.5-271.8,51.1c-625.4,124.7-4661.8,889-4702.7,891.1c-26.6,2-684.7-320.9-1465.4-715.3C1587.6,2227.8,943.9,1911,937.7,1917.1c-16.4,16.3,114.4,280,253.4,506.9C1804.3,3431.6,2791.4,4155.1,3940,4439.1c139,34.8,349.5,75.6,468,92C4706.4,4569.9,5268.5,4572,5577.1,4531.1z"/><path d="M2613.6,1743.4c-466-122.6-829.8-466-1001.4-946.3c-47-130.8-53.1-177.8-53.1-433.3c0-261.6,4.1-300.4,55.2-449.6C1775.7-547.6,2161.9-907.3,2630-1030c83.8-22.5,210.5-34.7,347.4-34.7c257.5,0,412.8,36.8,654,155.3c139,67.4,208.5,120.6,349.5,259.6C4126-502.7,4171-441.3,4250.7-279.9c406.7,831.8-32.7,1798.5-921.7,2025.4C3124.6,1796.6,2818,1796.6,2613.6,1743.4z M3220.6,650c132.8-67.4,224.8-247.3,198.2-384.2c-30.7-161.5-192.1-300.4-349.5-300.4c-237.1,2.1-419,224.8-359.7,445.5c26.6,96.1,87.9,179.9,173.7,231C2961.1,688.9,3138.9,692.9,3220.6,650z"/><path d="M6476.3,1743.4c-392.4-104.2-733.7-380.1-911.5-735.8c-124.7-253.4-161.4-435.3-149.2-715.3c18.4-394.4,167.6-713.3,463.9-987.1c267.7-247.3,584.5-369.9,960.6-369.9c404.7,0,713.3,128.8,1003.5,416.9c147.1,145.1,190.1,206.4,269.8,367.9c120.6,247.3,167.6,468,151.3,725.5c-38.8,623.3-468,1144.5-1068.9,1297.8C6987.3,1796.6,6680.7,1796.6,6476.3,1743.4z M7017.9,648c169.6-81.7,245.2-325,151.2-492.6C7054.7-46.9,6791.1-96,6621.4,53.2c-132.8,116.5-163.5,275.9-85.8,437.4C6617.3,658.2,6840.1,731.8,7017.9,648z"/><path d="M9313.1,981.1c-208.5-261.6-425.1-529.3-484.4-598.8c-96.1-116.5-106.3-136.9-128.8-286.1c-65.4-435.3-257.5-799.1-576.3-1103.6c-380.1-359.7-868.6-541.6-1385.7-513c-245.3,14.3-412.9,53.1-633.6,147.2c-572.3,243.2-1009.6,795-1111.8,1406.1c-24.5,145.1-26.6,147.2-89.9,153.3c-61.3,6.1-65.4,2.1-65.4-57.2c0-110.3-81.8-390.4-165.5-568.2c-104.2-224.8-224.8-390.3-410.8-568.2c-380.1-359.7-868.6-541.6-1385.7-513c-269.8,14.3-490.5,71.5-725.5,188c-580.4,286.1-983.1,864.5-1046.4,1506.3l-16.3,157.4L657.7,737.9C388,995.4,222.4,1138.5,214.2,1122.1c-26.6-47-77.7-394.5-102.2-701c-36.8-488.5,10.2-997.4,147.2-1541c159.4-637.7,498.7-1314.1,932-1847.6c173.7-214.6,529.3-574.3,733.7-735.8c1250.8-1003.5,2883.7-1334.6,4424.8-897.2c803.2,228.9,1528.7,660.2,2129.6,1269.2c261.6,263.6,394.4,427.1,607,741.9c652,972.8,934,2209.3,766.4,3351.8c-32.7,222.8-118.6,617.2-147.2,664.2C9695.3,1447.1,9574.7,1308.1,9313.1,981.1z M6862.6-2064.1c145.1-98.1,124.7-327-32.7-394.4c-38.8-16.3-134.9-28.6-214.6-28.6h-143.1v-355.6c0-329-4.1-357.7-42.9-408.7c-92-116.5-75.6-114.4-1136.3-114.4c-537.5,0-987.1,8.2-1001.5,16.3c-53.1,32.7-67.4,141-67.4,496.6v365.8h-316.8c-343.3,0-427.1,18.4-488.5,104.2c-42.9,61.3-42.9,190.1,2,257.5c73.6,110.4,30.7,108.3,1774,102.2C6699.1-2027.3,6813.6-2029.4,6862.6-2064.1z"/></g></g>
</svg>